<svg xmlns="http://www.w3.org/2000/svg" viewBox="0 0 1876.64 414.63"><defs><style>.cls-1{font-size:104.7px;font-family:AcariSans-Bold, Acari Sans;font-weight:700;}.cls-2{letter-spacing:-0.01em;}</style></defs><g id="Laag_2" data-name="Laag 2"><g id="Layer_1" data-name="Layer 1"><path d="M680.19,279.33c.39-1.37.84-3.32,1.43-6.38a75.34,75.34,0,0,0,1.13-13.87q0-39.93-14.38-72.63t-48.3-53.09Q586.14,113,530.56,113q-50.4,0-85.63,20.53t-52.66,54.08a156.36,156.36,0,0,0-16.17,91.75ZM481.45,187.16Q499.21,171,530.56,171q34.25,0,52.51,15.15t22.13,44.59h-147Q463.67,203.31,481.45,187.16Z"/><path d="M568.48,345.29l12.08,63.22a249.51,249.51,0,0,1-44.18,3.86q-52,0-88.38-19.54c-22.77-12.24-40.06-28.51-52.28-48.5Z"/><path d="M76.43,279.33a114.9,114.9,0,0,1-2.11-21.39q0-37.65,20.19-61.15t59.3-23.5q38.76,0,58.64,23.64t19.87,61a117.6,117.6,0,0,1-2.06,21.39h80.23a182.79,182.79,0,0,0,1.32-21.39q0-40.2-16.32-73.75a129,129,0,0,0-47.82-53.52q-31.5-20-75.45-20a152.07,152.07,0,0,0-51,8.35A97.13,97.13,0,0,0,81.42,145V0H0V279.33Z"/><path d="M293.61,344.33A129.19,129.19,0,0,1,248,394.67q-31.19,20-74.47,20A158.2,158.2,0,0,1,122,406.28q-24.41-8.36-40.56-25.63V409H0V344.33Z"/><path d="M825.24,279.33V244.07a72.63,72.63,0,0,1,8.25-34.54,62.91,62.91,0,0,1,23.42-24.78q15.18-9.19,35.87-9.2,28.76,0,40.23,16.42t11.46,45.31v42h80.14V244.07a74.66,74.66,0,0,1,8.08-34.68,60.17,60.17,0,0,1,23.42-24.78q15.35-9.06,36-9.06,28.42,0,40.23,16.85t11.79,46v40.92h80.13v-49.7a131.46,131.46,0,0,0-12.92-57.9q-12.93-26.76-39.9-43.32t-67-16.57a164,164,0,0,0-59.78,10.9q-28.11,10.9-46.53,32.14-33.29-43.6-92.73-43.6a118.15,118.15,0,0,0-43.78,8.35,90.16,90.16,0,0,0-36.36,26.47V116.66H745.76V279.33Z"/><rect x="745.76" y="344.33" width="79.49" height="64.64"/><rect x="944.47" y="344.33" width="80.13" height="64.64"/><rect x="1144.16" y="344.33" width="80.13" height="64.64"/><rect x="1287.3" y="344.33" width="79.49" height="64.64"/><path d="M1366.79,279.33V244.07a72.74,72.74,0,0,1,8.24-34.54,62.86,62.86,0,0,1,23.43-24.78q15.18-9.19,35.86-9.2,28.76,0,40.23,16.42T1486,237.28v42h80.13V244.07a74.79,74.79,0,0,1,8.08-34.68,60.2,60.2,0,0,1,23.43-24.78q15.35-9.06,36-9.06,28.43,0,40.22,16.85t11.8,46v40.92h80.13v-49.7a131.46,131.46,0,0,0-12.92-57.9Q1740,145,1713,128.41t-67-16.57a164,164,0,0,0-59.77,10.9q-28.11,10.9-46.53,32.14-33.29-43.6-92.74-43.6a118.19,118.19,0,0,0-43.78,8.35,90.06,90.06,0,0,0-36.35,26.47V116.66H1287.3V279.33Z"/><rect x="1685.71" y="344.33" width="80.13" height="64.64"/><rect x="1486.02" y="344.33" width="80.13" height="64.64"/><text class="cls-1" transform="translate(1725.51 113.83)"><tspan class="cls-2">T</tspan><tspan x="59.2" y="0">M</tspan></text></g></g></svg>