<svg xmlns="http://www.w3.org/2000/svg" viewBox="0 0 448.73 852.96"><g id="Laag_2" data-name="Laag 2"><g id="Design_here" data-name="Design here"><path d="M127.69,469.33H0V298.74H127.68v-6.39c0-34-.67-68,.28-102C129.24,145,141,102.78,170.35,67c30.19-36.85,70.3-56.06,116.59-63.58C318.42-1.69,350.09.06,381.7,1.49c19.79.89,39.54,2.72,59.3,4.16a29.81,29.81,0,0,1,3.55.69v135c-1.71.1-3.31.27-4.9.27-25,0-50-.2-75,.13a149.24,149.24,0,0,0-26.78,2.57c-24.7,4.9-36.61,17.79-38.08,43-1.36,23.26-1,46.62-1.28,69.93-.15,13.49,0,27,0,41.27H448.73c-1.2,11.08-2.26,21.32-3.43,31.55q-5.31,46.41-10.7,92.8c-1.63,14.06-3.42,28.1-4.8,42.18-.35,3.52-1.58,4.38-4.89,4.37-33.16-.12-66.32-.09-99.48-.1H298.7V853h-171Z"/></g></g></svg>