<svg xmlns="http://www.w3.org/2000/svg" viewBox="0 0 124.38 125.9"><g id="Laag_2" data-name="Laag 2"><g id="Design_here" data-name="Design here"><path d="M124.35,125.9H99.76V99.8c0-5.66.08-11.33,0-17-.19-10.4-6.81-17.46-16-17.24-9,.21-15.35,7.29-15.38,17.4,0,14.15,0,28.3,0,42.82H43.94V42.84H68.28V54c1.64-1.82,2.58-2.85,3.5-3.88a30.12,30.12,0,0,1,32.8-8.44,29.46,29.46,0,0,1,19.74,27.93C124.44,88.21,124.35,106.85,124.35,125.9Z"/><path d="M2.69,125.72V43H26.93v82.7Z"/><path d="M14.77,0A14.83,14.83,0,0,1,29.7,14.8a15,15,0,0,1-14.85,15A14.9,14.9,0,0,1,0,14.88,14.7,14.7,0,0,1,14.77,0Z"/></g></g></svg>