<svg xmlns="http://www.w3.org/2000/svg" xmlns:xlink="http://www.w3.org/1999/xlink" viewBox="0 0 146.51 116.92"><defs><style>.cls-1{fill:url(#Naamloos_verloop_11);}.cls-2{fill:url(#Naamloos_verloop_11-2);}.cls-3{fill:url(#Naamloos_verloop_11-3);}.cls-4{fill:url(#Naamloos_verloop_11-4);}.cls-5{fill:url(#Naamloos_verloop_11-5);}.cls-6{fill:url(#Naamloos_verloop_11-6);}</style><linearGradient id="Naamloos_verloop_11" x1="29.46" y1="98.68" x2="117.27" y2="98.68" gradientUnits="userSpaceOnUse"><stop offset="0" stop-color="#fff"/><stop offset="0" stop-color="#17cfc4"/><stop offset="1" stop-color="#48ea9c"/></linearGradient><linearGradient id="Naamloos_verloop_11-2" x1="49.56" y1="49.26" x2="96.87" y2="49.26" xlink:href="#Naamloos_verloop_11"/><linearGradient id="Naamloos_verloop_11-3" x1="11.32" y1="18.09" x2="47.46" y2="18.09" xlink:href="#Naamloos_verloop_11"/><linearGradient id="Naamloos_verloop_11-4" x1="99.25" y1="18.08" x2="135.4" y2="18.08" xlink:href="#Naamloos_verloop_11"/><linearGradient id="Naamloos_verloop_11-5" x1="0" y1="56.33" x2="42.31" y2="56.33" xlink:href="#Naamloos_verloop_11"/><linearGradient id="Naamloos_verloop_11-6" x1="104.33" y1="56.35" x2="146.51" y2="56.35" xlink:href="#Naamloos_verloop_11"/></defs><g id="Laag_2" data-name="Laag 2"><g id="Design_here" data-name="Design here"><path class="cls-1" d="M73.27,116.83c-11.81,0-23.62-.22-35.42.08-6.26.16-9.23-2.83-8.18-9.78,2-13.51,13.32-25.07,27-26.08a231.43,231.43,0,0,1,32.89,0c13.76,1,25.06,12.21,27.41,25.76,1.35,7.85-2.45,10.29-8.3,10.15C96.9,116.62,85.08,116.83,73.27,116.83Zm.13-7c10.63,0,21.26,0,31.89,0,4.33,0,4.87-.83,3.72-5-2.49-9-11.86-16.59-21.83-16.94q-13.94-.48-27.89,0c-10.26.34-20,8.57-22,18-.79,3.71-.65,4,3.23,4C51.47,109.86,62.44,109.82,73.4,109.83Z"/><path class="cls-2" d="M72.89,72.85a23.59,23.59,0,1,1,.61-47.18C86.43,25.88,97,36.61,96.87,49.35A23.51,23.51,0,0,1,72.89,72.85ZM89.61,49.28A16.29,16.29,0,0,0,73.29,32.76,16.82,16.82,0,0,0,56.47,49.48,17,17,0,0,0,73.25,65.83,16.38,16.38,0,0,0,89.61,49.28Z"/><path class="cls-3" d="M47.46,17.85C47.55,28.15,40,36,29.77,36.17c-10.56.16-18.46-7.55-18.45-18A17.8,17.8,0,0,1,29.23,0,17.88,17.88,0,0,1,47.46,17.85ZM29.31,29.07A11,11,0,0,0,40.47,18.15,11.32,11.32,0,0,0,29.44,7,11.13,11.13,0,0,0,18.34,18,10.79,10.79,0,0,0,29.31,29.07Z"/><path class="cls-4" d="M135.4,18.13a17.65,17.65,0,0,1-18,18c-10.55,0-18.28-7.75-18.18-18.3a18.08,18.08,0,0,1,36.15.27ZM117.3,29.07a11,11,0,0,0,11.1-11A11.35,11.35,0,0,0,117.31,7a11.12,11.12,0,0,0-11,11.13A10.78,10.78,0,0,0,117.3,29.07Z"/><path class="cls-5" d="M25.64,43.94c2.67,0,5.35-.2,8,.06a23.41,23.41,0,0,1,6.22,1.53c1.84.73,3,2.37,2.23,4.43s-2.4,2.35-4.48,2.17C31.51,51.6,25.4,51,19.3,51c-7.13-.1-11.45,4.23-11.93,11.32-.1,1.32.28,2.91-.33,3.9a5.67,5.67,0,0,1-3.55,2.61c-.91.1-2.64-1.45-3-2.56C-2.26,56.35,6.32,44.6,16.66,44c3-.18,6,0,9,0Z"/><path class="cls-6" d="M146.47,63.94a4.71,4.71,0,0,1-.33,2.53c-.73,1.08-2.13,2.37-3.23,2.36a4.48,4.48,0,0,1-3.16-2.39c-.6-1.24-.27-2.92-.39-4.41-.56-6.64-5-11.14-11.72-11.07-6.26.06-12.52.67-18.76,1.19-2,.16-3.74-.09-4.37-2.23a3.39,3.39,0,0,1,2.2-4.44A24.16,24.16,0,0,1,113.44,44c4.63-.22,9.29-.1,13.94-.07C138.68,44,146.28,51.64,146.47,63.94Z"/></g></g></svg>