<svg xmlns="http://www.w3.org/2000/svg" xmlns:xlink="http://www.w3.org/1999/xlink" viewBox="0 0 146.07 116.22"><defs><style>.cls-1{fill:url(#Naamloos_verloop_11);}.cls-2{fill:url(#Naamloos_verloop_11-2);}</style><linearGradient id="Naamloos_verloop_11" x1="22" y1="83.43" x2="124.11" y2="83.43" gradientUnits="userSpaceOnUse"><stop offset="0" stop-color="#fff"/><stop offset="0" stop-color="#17cfc4"/><stop offset="1" stop-color="#48ea9c"/></linearGradient><linearGradient id="Naamloos_verloop_11-2" x1="0" y1="58.07" x2="146.07" y2="58.07" xlink:href="#Naamloos_verloop_11"/></defs><g id="Laag_2" data-name="Laag 2"><g id="Design_here" data-name="Design here"><path class="cls-1" d="M80.32,80.24h6.06c9.65,0,19.31,0,29,0,6.31,0,8.63,2.4,8.7,8.79s.1,12.66,0,19c-.09,5.77-2.48,8.15-8.27,8.16q-42.94.06-85.89,0c-5.49,0-7.83-2.39-7.85-8q-.08-24.72,0-49.43c0-5.09,2.46-7.9,7.58-8q21.21-.33,42.44,0C77.41,50.83,79.9,53.7,80,59s0,10.32,0,15.48C80.07,76.12,80.21,77.75,80.32,80.24ZM72.9,57.94H29.19v22H72.9ZM29.08,109H72.83V87.47H29.08ZM80.43,87.41V109h36.38V87.41Z"/><path class="cls-2" d="M.05,73.72c0-11.83.1-23.66,0-35.48-.08-6.09,2.46-9.94,8.14-12.3Q37,14,65.59,1.65a17.06,17.06,0,0,1,14.78.07c18.59,8.13,37.34,15.88,56,23.75C144.54,28.89,146,31,146,39.73q0,34.49,0,69c0,1.33,0,2.66-.09,4-.13,2.13-1.18,3.52-3.43,3.41s-3.21-1.53-3.31-3.63c-.06-1.33,0-2.66,0-4,0-22.82-.1-45.64.13-68.46,0-4.58-1.58-6.85-5.74-8.55C114.65,23.73,95.81,15.76,77,7.77a9.45,9.45,0,0,0-8-.06c-18.83,8-37.68,16-56.63,23.67C8.06,33.1,6.71,35.52,6.75,40c.22,23.16.12,46.31.12,69.47,0,4.71-1,6.51-3.42,6.66S0,114.73,0,109.7q0-18,0-36Z"/></g></g></svg>