<svg xmlns="http://www.w3.org/2000/svg" xmlns:xlink="http://www.w3.org/1999/xlink" viewBox="0 0 116.64 116.02"><defs><style>.cls-1{fill:url(#Naamloos_verloop_11);}.cls-2{fill:url(#Naamloos_verloop_11-2);}.cls-3{fill:url(#Naamloos_verloop_11-3);}</style><linearGradient id="Naamloos_verloop_11" y1="58.01" x2="116.64" y2="58.01" gradientUnits="userSpaceOnUse"><stop offset="0" stop-color="#fff"/><stop offset="0" stop-color="#17cfc4"/><stop offset="1" stop-color="#48ea9c"/></linearGradient><linearGradient id="Naamloos_verloop_11-2" x1="29.7" y1="46.85" x2="54.3" y2="46.85" xlink:href="#Naamloos_verloop_11"/><linearGradient id="Naamloos_verloop_11-3" x1="62.68" y1="46.84" x2="87.16" y2="46.84" xlink:href="#Naamloos_verloop_11"/></defs><g id="Laag_2" data-name="Laag 2"><g id="Design_here" data-name="Design here"><path class="cls-1" d="M38.66,116c-.19-5.1-.07-16.35-.07-22.22-7.63,0-16,0-22.69,0C5.81,93.72.07,88.08.05,78,0,57.36.19,36.72,0,16.07-.08,7.25,5.36-.13,16.07,0Q58.52.55,101,0c8.67-.1,15.87,5.85,15.64,15.83-.48,20.63-.1,41.29-.11,61.94,0,10.47-5.51,16-16,16-9.15,0-18.32-.14-27.47.11a12.65,12.65,0,0,0-6.9,2.29m-22.66,9.19c6.31-4.75,12.77-9.31,19-14.22a15.66,15.66,0,0,1,10.58-3.52q13.49.21,27,0c7.87-.12,10.43-2.68,10.47-10.63q.17-30,.08-59.93c0-8.22-3-11.11-11.23-11.12q-40.69-.06-81.4,0C9.57,6,6.73,8.73,6.71,17q-.06,30,.07,59.93c0,8.29,2.43,10.64,10.79,10.75,6.83.08,13.65-.06,20.48.07,4.68.09,5.39.92,5.47,5.67C43.59,97.39,43.52,101.39,43.54,105.38Z"/><path class="cls-2" d="M47.28,49.74c-3.37-.17-6.45.2-9.2-.58-6.15-1.75-9.11-7-8.23-13.54.74-5.5,6-10.11,11.75-10.31s11.79,4.06,12.34,10.17a81.35,81.35,0,0,1-.6,20.27C52.14,63,45.19,68.23,38,68.39c-1.54,0-4-1.39-4.47-2.68C32.75,63.47,34.77,62.52,37,62,45,60.22,48.11,56.28,47.28,49.74ZM42.16,43.5a5.63,5.63,0,0,0,5.64-5.68,5.81,5.81,0,1,0-11.59.37A5.51,5.51,0,0,0,42.16,43.5Z"/><path class="cls-3" d="M80.28,49.74c-3.37-.17-6.45.2-9.21-.58-6.14-1.75-9.13-7.07-8.23-13.55.74-5.32,5.69-9.84,11.26-10.28,5.81-.46,12,3.5,12.63,9.69a80.38,80.38,0,0,1-.68,21.69C84.86,63.43,77.77,68.28,71,68.39c-1.54,0-4-1.4-4.47-2.69-.72-2.24,1.3-3.18,3.53-3.68C78,60.21,81.12,56.27,80.28,49.74Zm-5.87-6.28a5.65,5.65,0,0,0,6.39-5.39,6.1,6.1,0,0,0-5.25-6.18,6,6,0,0,0-6.35,5.56A5.46,5.46,0,0,0,74.41,43.46Z"/></g></g></svg>