<svg xmlns="http://www.w3.org/2000/svg" xmlns:xlink="http://www.w3.org/1999/xlink" viewBox="0 0 116.51 116.73"><defs><style>.cls-1{fill:url(#Naamloos_verloop_11);}.cls-2{fill:url(#Naamloos_verloop_11-2);}.cls-3{fill:url(#Naamloos_verloop_11-3);}.cls-4{fill:url(#Naamloos_verloop_11-4);}</style><linearGradient id="Naamloos_verloop_11" y1="58.37" x2="116.51" y2="58.37" gradientUnits="userSpaceOnUse"><stop offset="0" stop-color="#fff"/><stop offset="0" stop-color="#17cfc4"/><stop offset="1" stop-color="#48ea9c"/></linearGradient><linearGradient id="Naamloos_verloop_11-2" x1="31.39" y1="82.32" x2="85.08" y2="82.32" xlink:href="#Naamloos_verloop_11"/><linearGradient id="Naamloos_verloop_11-3" x1="62.86" y1="47.48" x2="90.16" y2="47.48" xlink:href="#Naamloos_verloop_11"/><linearGradient id="Naamloos_verloop_11-4" x1="34.72" y1="47.32" x2="45.14" y2="47.32" xlink:href="#Naamloos_verloop_11"/></defs><g id="Laag_2" data-name="Laag 2"><g id="Design_here" data-name="Design here"><path class="cls-1" d="M116.49,58.42c.57,31.9-26.43,58.1-57.87,58.31C27.8,116.94.16,91.73,0,58.61-.14,28.71,23.63.13,58.18,0,91.75-.12,117.13,27.81,116.49,58.42Zm-6.73-.11a51.48,51.48,0,1,0-103,.29C7,90.38,33.1,110.07,58.41,109.83A51.51,51.51,0,0,0,109.76,58.31Z"/><path class="cls-2" d="M58,91.18c-9.11-.48-17.24-3.29-23.77-9.93a21,21,0,0,1-2-2.24c-1.1-1.5-1.32-3.15.11-4.5s3.32-1.33,4.92.07c.62.54,1.11,1.23,1.71,1.8,11.06,10.47,27.14,10.47,38.23,0a28,28,0,0,1,2.16-2.06,3.27,3.27,0,0,1,4.54.08,3,3,0,0,1,.27,4.47,29.89,29.89,0,0,1-2.65,3A34.72,34.72,0,0,1,58,91.18Z"/><path class="cls-3" d="M76.49,40.44A14.23,14.23,0,0,1,89.56,48.7c.87,2,1,4.06-1,5.26s-3.74,0-4.93-1.88a14.89,14.89,0,0,0-2-2.83c-3.48-3.42-9.8-2.37-12.11,2.46-1.31,2.74-3.45,3.37-5.1,2.33s-2.07-3.42-.78-5.75C66.4,43.25,70.63,40.48,76.49,40.44Z"/><path class="cls-4" d="M39.74,52.47a5.07,5.07,0,0,1-5-5,5.22,5.22,0,0,1,5.36-5.25,5.39,5.39,0,0,1,5,5.13A5.19,5.19,0,0,1,39.74,52.47Z"/></g></g></svg>