<svg xmlns="http://www.w3.org/2000/svg" viewBox="0 0 437.31 415.66"><g id="Laag_2" data-name="Laag 2"><g id="Design_here" data-name="Design here"><path d="M108.8,84.59c1.7-.46,2.73-.76,3.78-1,3-.72,6.56.24,7.77,2.9,1.92,4.19,3.87,8.56,4.58,13,1,6.56-3.7,10.9-10.82,11.19-5.13.21-10.25.71-15.39,1s-8.86,3.14-12.26,6.57c-2.64,2.66-5.09,2.7-7.54,0-.33-.37-.53-.9-.93-1.15-1.64-1.06-3.59-3.12-5-2.8a7,7,0,0,0-5.51,5.81c-1.41,7.14-3.34,14.18-5,21.23,1-.68,2.54-1.62,4-2.64,2.52-1.77,5-3.6,7.49-5.36,7.75-5.43,23.09-4.79,28.92,6.71.63,1.24,1.57,2.33,2.08,3.6,2,5.09,9.55,6.14,13.66,2.48,3.54-3.15,7.07-6.53,11.16-8.8,3.52-1.94,7.8-2.61,11.81-3.52,2.2-.5,3.61.89,4.53,3q4.89,11.11,10,22.14c1.76,3.77,1.66,5.28-1.44,8.09-7,6.32-15.48,7.78-24.22,6.35-11.12-1.81-22-4.84-33.11-7-16.11-3.13-30.41,1-42.2,12.32-9.28,8.92-9.79,20.22-2.4,31.37A38.16,38.16,0,0,0,67.32,223c10.27,5.34,18.49,12.59,21.18,24.29a138.38,138.38,0,0,1,2.61,19.39c.78,9.28.69,18.65,1.86,27.87,1.31,10.34,7.63,17.87,16,23.73,4.15,2.92,7.41,2.4,9.5-2.21a118.49,118.49,0,0,0,6.63-18.68c2.38-9.09,4.18-18.34,6-27.56,2.07-10.36,8.54-16.15,18.48-18.62a62.89,62.89,0,0,0,7.39-2.23c4.82-1.87,6.62-6.8,3.76-11.14a38.93,38.93,0,0,0-6.43-6.92c-2.85-2.6-6-4.94-9-7.38-5.81-4.71-8.1-11.1-8.54-18.3-.44-7,4.71-10.57,10.79-7.09,4.61,2.64,8.76,6.11,13.1,9.23,4.75,3.4,9.44,6.9,14.26,10.19a12.93,12.93,0,0,0,5.14,2.23c1.76.26,4.15.25,5.39-.74a5.28,5.28,0,0,0,1.64-6.7,34.42,34.42,0,0,0-4.61-6.1c-2.24-2.51-4.94-4.64-7-7.28-6.35-8.17.24-17.11,7.47-18.58,6.08-1.23,11.79.21,17.47,2.11,15.77,5.28,25.58,16.39,31.2,31.66,1.58,4.27,3.17,8.53,5,12.71,1.24,2.9,2.48,3.27,5,1.32,3.91-3,7.58-6.36,11.34-9.58,4.14-3.55,8.08-7.36,12.43-10.62,10.73-8,19.87-4.92,23.45,8,1.77,6.38,2.81,13,4.41,19.4a29.67,29.67,0,0,0,2.85,6.82,6.8,6.8,0,0,0,7.27,3.57c3.11-.36,4.39-2.69,4.8-5.33.89-5.67,1.65-11.38,2.14-17.09.78-9.08,5.86-14.72,14-17.86C328,204,332,203.11,335.94,202c5.75-1.66,7.22-3.89,6.45-9.81-.83-6.43-3.25-11.65-9.69-14.56-4.21-1.91-5.12-5.67-2.81-9.73A40.16,40.16,0,0,1,347.11,152c3.79-1.95,7.63-3.82,11.25-6,5.1-3.16,5.68-6.23,3-11.55a13.21,13.21,0,0,0-9.37-7.5,69.79,69.79,0,0,1-8.84-2.57c-6.32-2.33-10.07-8.18-8.86-14.76a45.12,45.12,0,0,1,4.13-12c2.66-5.22,7.88-7,13.43-4.94a58.42,58.42,0,0,1,7.39,3.77c2.93,1.59,5.86,3.18,8.71,4.9,1.58,1,3,2.18,5.14,3.77-.4-2.46-.58-4.52-1.09-6.5-1.5-5.74-3.21-11.43-4.67-17.18-.74-2.89.68-5.24,3.1-5.8,2.86-.65,4.82.74,5.64,3.81,1.8,6.79,3.75,13.54,5.5,20.35,1.43,5.56-.35,10.38-4,14.57-3.34,3.83-7.72,3.74-10.42-.54a14.81,14.81,0,0,0-6.74-5.76c-3.1-1.46-5.77-3.83-8.74-5.6-3.77-2.23-5.33-1.63-7.07,2.4-.23.55-.42,1.12-.6,1.68-2.22,6.63-1.32,8.36,5.36,10.23,2,.56,4,1.1,6,1.59,9.09,2.2,13.65,8.83,16,17.12,2.15,7.48-.9,13.83-8.49,18.48-4.38,2.69-9.24,4.61-13.56,7.39-3.85,2.48-7.24,5.67-11.26,8.89,10.54,5.84,13.33,14.86,13.4,25.07.05,7.26-3.57,12.2-10.44,14.64-3.73,1.33-7.61,2.2-11.42,3.29-6.32,1.82-10.25,5.44-10.63,12.54a114.15,114.15,0,0,1-2.18,17.08c-1.3,6.28-5,10.83-11.77,11.8-7,1-12.69-1.31-16.63-7.37-3.61-5.54-4.74-11.9-6.07-18.21-.88-4.16-1.73-8.35-3-12.4s-3-4.87-6.59-2.4c-4.47,3.06-8.57,6.68-12.74,10.17-4.48,3.74-8.81,7.66-13.32,11.36a13.88,13.88,0,0,1-4.49,2.27c-5.13,1.65-9.38.48-12-4.32-2.8-5.08-4.71-10.65-6.94-16-3-7.18-6.27-14.17-12.47-19.21a42.51,42.51,0,0,0-22.4-9.43,5.74,5.74,0,0,0-2.65.14c-1.21.49-2.75,1.09-3.25,2.1-.38.75.38,2.47,1.14,3.3,2.21,2.41,4.72,4.53,7,6.86,5,5.08,7.7,11,5.07,18.07-3.34,9-10.89,12.65-19.55,8.5-7.08-3.39-13.5-8.2-20.08-12.58-3.19-2.12-6.08-4.71-9.46-7.37.07,4,2,6.39,4.44,8.45,4.06,3.49,8.31,6.76,12.34,10.28,3.83,3.33,6.72,7.32,7.43,12.51,1.2,8.74-3,15.64-11.43,18.49-2.81.95-5.69,1.73-8.57,2.47-5.81,1.51-9.5,5-10.75,11-1.6,7.65-3,15.36-5,22.9-2.2,8.2-5,16.24-7.58,24.32a12.68,12.68,0,0,1-1.93,3.33c-5.5,7.64-12.38,9.42-20.41,4.57-11.11-6.71-18.66-16.46-21-29.33-1.45-8.05-1.41-16.36-2-24.56-.42-5.83-.48-11.7-1.24-17.49-1.33-10.06-6.41-17.68-15.53-22.58-7.2-3.86-14-8.3-18.8-15.2-8.36-12.07-11.19-24.65-3.36-38.13C47,172.62,52.5,168,58.88,164.3c15-8.58,30.73-9.93,47.39-5.34a258.49,258.49,0,0,0,28.21,5.55,17,17,0,0,0,12.44-2.91c-2.91-6-5.79-12-9-18.58-2.55,1.61-5.3,3.12-7.78,5s-4.72,4.24-7.19,6.23c-7.74,6.24-21.06,3.17-24.79-4.42A55.25,55.25,0,0,0,94.61,144c-3.31-5-9.3-6.66-14.57-3.6-3.51,2-6.66,4.66-10,6.91a26.07,26.07,0,0,1-5.71,3.13c-6.42,2.18-14.13-3.09-14.8-9.93-.22-2.28,1-3.65,2.84-4.78a6.45,6.45,0,0,0,2.83-2.83c1.24-3.54,2.1-7.22,3.07-10.85a2.71,2.71,0,0,0,.05-1.75c-2-3.63,0-6,2.47-8.23.81-.73,1.57-1.51,2.39-2.24,7.25-6.45,12-6.72,20-1,8.11-7,18.25-6.5,28.1-7.07,5.27-.3,5.36-.27,4-5.25a28.36,28.36,0,0,0-1.53-3.57,46,46,0,0,1-6.59,1.52c-4.3.33-6.67-1.82-7.25-6-.86-6.32,1.54-11.21,6.44-15.07a65.16,65.16,0,0,1,21.37-11.47,60.81,60.81,0,0,1,14.27-2.36c6.29-.35,11.31,2.47,14.71,7.9.26.42.52.84.79,1.26,4,6.1,8.22,7.9,14.95,5.25,10.77-4.25,21.35-9,32-13.6,2.53-1.1,4.85-2.72,7.37-3.86,6.6-3,10.45-8.23,12.82-14.87a86.12,86.12,0,0,1,3.5-7.87c6.66-14.07,25-14.2,33.57-4.68,2.65,2.94,5.08,6.09,7.51,9.22,3.61,4.67,8.43,6.67,14.2,6.91,10,.42,19.49-2.07,29-4.54,14.86-3.88,29.73-4.6,44.75-1.2,19.19,4.35,33.24,15.87,43.78,32,14.44,22,23.94,46.24,30.28,71.71a214.78,214.78,0,0,1,5.39,70.28A212.17,212.17,0,0,1,413,295.13c-25.95,49.34-64.8,84.66-116.62,105.42-28.95,11.6-59.11,16.23-90.25,14.88a213.6,213.6,0,0,1-65.91-13.2A223.84,223.84,0,0,1,10.39,275.14a22.2,22.2,0,0,1-1.55-7.75,5.07,5.07,0,0,1,2.48-3.85c1-.46,3.21.31,4.13,1.26a17.53,17.53,0,0,1,3.61,5.7,212.41,212.41,0,0,0,32.09,55.74c23,28.48,51.27,50,85.26,63.9A208.45,208.45,0,0,0,195,404.87c35.83,3.54,70.48-1.45,103.52-15.82,52.82-23,90.47-61.2,113.05-114.2a194.2,194.2,0,0,0,13.69-50c6.1-44.3-.72-86.46-21.1-126.36a221.72,221.72,0,0,0-22.3-34.75C375.5,55.49,366.71,51.35,357,48.83c-14.06-3.64-28-2.9-42.07.57a211.29,211.29,0,0,1-26.31,4.69c-12.05,1.39-22.05-2.56-28.93-13.11a65.57,65.57,0,0,0-4.53-5.51c-4.2-5.15-15-6.15-19,2.32-1.55,3.32-3.06,6.66-4.45,10.05A30.22,30.22,0,0,1,217.8,63.49c-14.55,8-29.38,15.27-45.38,19.87-7.95,2.29-16.7-.37-20.87-7.51-4.38-7.52-10.18-8.6-17.64-6.46a62.41,62.41,0,0,0-22.07,11.28A13.59,13.59,0,0,0,110,82.6,19.58,19.58,0,0,0,108.8,84.59Z"/><path d="M66.79,92.87a21.69,21.69,0,0,1-14-5.08c-4.69-3.73-6.09-10.05-3.58-16.54,3.61-9.33,10.62-15.87,18.3-21.81A30.8,30.8,0,0,1,71.22,47c2.47-1.39,5.27-.77,6.55,1.36s.67,4.83-1.82,6.41A51.15,51.15,0,0,0,61.39,68.15a35,35,0,0,0-3.84,7.32c-1,2.64-.09,4.8,2.38,6.32,4.86,3,10.13,2.69,15-1C81.34,76,85.26,69.14,89,62.25c1.85-3.39,3.66-6.82,5.16-10.37,3-7.14,7.85-12.74,13.55-17.83,6.06-5.41,11.9-11.07,17.74-16.73A19.84,19.84,0,0,0,128.59,13c1.6-2.7.86-4.25-2.32-4.16a28.28,28.28,0,0,0-8.74,1.38A151,151,0,0,0,71.37,36.74C46,57.87,26.29,83.21,14.31,114.19c-2.17,5.61-3.6,11.52-5.28,17.32-1,3.43-2.75,4.84-5.61,4.24s-3.95-2.87-3.21-6.3A147,147,0,0,1,17.59,86C33.81,58.4,55,35.34,81.91,17.82,93,10.61,104.55,4.19,117.45.89A30.66,30.66,0,0,1,130,.45c7.39,1.31,10.83,8.17,7.5,14.9a42,42,0,0,1-7.84,10.71c-6.61,6.71-13.87,12.77-20.43,19.53a43.51,43.51,0,0,0-7,10.57c-5.06,9.88-9.66,20-17.53,28.15C79.84,89.41,74.09,92.78,66.79,92.87Z"/><path d="M306.86,336.66c-3.44,0-6.48-.1-9.5.06a6,6,0,0,0-2.63,1.25c-3.14,2-6.45,3.59-9.91,1.11-3.7-2.65-6-6.67-5.05-11.05,2.8-13.58,9.84-24,23.91-28,7.21-2,14.68-3.18,22-4.86a28,28,0,0,0,5.23-2.05c1.93-.89,3.78-1.92,3.33-4.59a1.72,1.72,0,0,1,.24-.85c1.45-3.51,8.64-4.67,11-1.73,1.8,2.21,1.44,4.45-.35,6.45-1.48,1.67-2.36,3.65-.56,5.17a5.54,5.54,0,0,0,4.76.56,100.92,100.92,0,0,0,11.35-5.67c2-1.15,4-2,6.07-.51s2.19,3.62,1.78,5.87c-2.2,11.85-7.61,22.26-14.65,31.86-6.27,8.55-12.81,16.9-21.49,23.28-4.8,3.53-10.18,4.28-15.83,3.58-4.82-.59-6.88-3.76-6-9a5.43,5.43,0,0,0-1.19-4.78C308,340.84,307.51,338.28,306.86,336.66Zm29.07-35.8c-7.45,4.05-15.46,5.05-23.36,6.24-11.74,1.77-19.63,7.89-23.18,19.32a16.58,16.58,0,0,0-.47,3.13c3.61-.7,6.82-1.34,10.05-1.93a20.45,20.45,0,0,0,3.65-.49c5.89-2.27,10.35-.34,12.59,5.59.56,1.48.68,3.41,1.72,4.38,3.05,2.86,4,6.22,3.09,10.94,2.19-.62,4-.79,5.42-1.63a36.2,36.2,0,0,0,6.4-4.81,113.86,113.86,0,0,0,21.39-28c1.35-2.47,2.36-5.13,3.93-8.61C348.6,308.77,341.33,309.44,335.93,300.86Z"/><path d="M182.42,279.68c-.59,12.09-5.46,19.9-13.14,26a42.14,42.14,0,0,1-9.17,5.43,6,6,0,0,1-5.14-.4c-1.12-.89-1.16-3.2-1.55-4.92-.25-1.11-.07-2.36-.46-3.39-6.23-16.33,3.1-31.75,20.76-35.45a4.38,4.38,0,0,1,5.35,2.74C180.58,273.54,181.7,277.52,182.42,279.68Zm-20.69,19.86c8.52-4.7,13.37-15.34,10.39-22.41C162.24,279.89,157.62,289.73,161.73,299.54Z"/><path d="M309.44,266.72c.56-2.29.94-4.65,1.72-6.88,1-2.8,4.32-3.62,6.91-2,.85.52,2,1.17,2.86,1,5-1.34,9.19.47,12.66,3.54,5.43,4.84,11.49,6.53,18.63,5.88,6.8-.61,12.81,1.21,16.68,7.47,1.68,2.71,1.35,5.26-.92,6.82s-4.67,1-6.4-1.55a7.73,7.73,0,0,0-7.32-3.63c-1.68.09-3.38-.05-5.06.08-7.56.57-13.89-2.23-19.77-6.73-5.36-4.1-6.13-3.95-11.34.13-1.69,1.32-3.36,2.49-5.67,1.41S309.52,269.13,309.44,266.72Z"/><path d="M180.15,61.74c1.7-10.09,6.12-17.71,13.3-23.74a34,34,0,0,1,4.08-3,4.6,4.6,0,0,1,6.35,1c1.51,2.08,1,4.67-1.24,6.58a69.65,69.65,0,0,0-6.85,6.08c-1,1.14-1.24,3-1.7,4.64-1.29,4.45-2,9.32-6.77,11.58a6.65,6.65,0,0,1-4.94-.06C181.24,64.33,180.67,62.52,180.15,61.74Z"/><path d="M349,246.52c-.37,4.9-1.85,9.42-5.42,13.09-2,2.09-4.63,2.32-6.61.59a4.28,4.28,0,0,1-.29-6.37c4.13-4.78,3.77-9.71,1-14.87a22.84,22.84,0,0,1-1.54-2.88A4.52,4.52,0,0,1,344,231.7,28.11,28.11,0,0,1,349,246.52Z"/><path d="M180.63,32.16a4,4,0,0,1-4.2-3.58c-.52-2.67,1-4.3,3.31-5.27,2.64-1.09,5.45-1.89,7.9-3.3a77,77,0,0,0,8.44-6c2.09-1.61,4.83-1.78,6.48-.16a4.74,4.74,0,0,1,0,6.69,47.17,47.17,0,0,1-19.9,11.36A11.36,11.36,0,0,1,180.63,32.16Z"/><path d="M157.84,30.54c-4.66-.26-6.74,1.1-8.86,5.8-1.6,3.54-5.3,4.68-7.49,2a6,6,0,0,1-1.14-4.56c1.9-8,10-13.37,18.2-12.4,3.66.43,5.57,2.24,5.35,5.07S161.57,30.74,157.84,30.54Z"/></g></g></svg>